<?xml version="1.0" encoding="utf-8"?>
<!-- Generator: Adobe Illustrator 21.0.0, SVG Export Plug-In . SVG Version: 6.00 Build 0)  -->
<svg version="1.1" xmlns="http://www.w3.org/2000/svg" xmlns:xlink="http://www.w3.org/1999/xlink" x="0px" y="0px"
	 viewBox="0 0 64 64" style="enable-background:new 0 0 64 64;" xml:space="preserve">
<style type="text/css">
	.st0{display:none;}
	.st1{display:inline;}
	.st2{fill:#F9B797;}
	.st3{fill:#F05222;}
	.st4{fill:none;stroke:#FFFFFF;stroke-width:2;stroke-miterlimit:10;}
	.st5{fill:none;stroke:#FFFFFF;stroke-width:2;}
	.st6{display:inline;stroke:#000000;stroke-miterlimit:10;}
	.st7{display:inline;fill:none;stroke:#000000;stroke-miterlimit:10;}
	.st8{fill:#FFFFFF;}
	.st9{display:inline;fill:#FFFFFF;stroke:#000000;stroke-miterlimit:10;}
	.st10{display:inline;fill:#F9B797;}
	.st11{display:inline;fill:#F05222;}
	.st12{font-family:'MADEGoodTimeGrotesk';}
	.st13{font-size:4.9345px;}
	.st14{font-size:10.7499px;}
	.st15{font-family:'NoirPro-Regular';}
	.st16{font-size:14.0301px;}
	.st17{font-size:3.344px;}
	.st18{display:inline;fill:none;stroke:#000000;stroke-width:1.25;stroke-miterlimit:10;}
	.st19{fill:none;stroke:#000000;stroke-width:1.25;stroke-miterlimit:10;}
	.st20{display:none;fill:#F05222;}
	.st21{font-size:18.2696px;}
	.st22{font-size:8px;}
	.st23{stroke:#000000;stroke-miterlimit:10;}
	.st24{fill:none;stroke:#000000;stroke-miterlimit:10;}
	.st25{fill:#FFFFFF;stroke:#000000;stroke-miterlimit:10;}
</style>
<g id="Layer_1" class="st0">
	<g transform="matrix(.8 0 0 .8 -8.0004 -8)" class="st1">
		<path class="st2" d="M61.3,69.8l-7-13.7H44.1L61.3,90l17.2-33.9H68.2"/>
		<path class="st3" d="M44.9,37.4l9.5,18.7h13.9L44.9,10L21.5,56.1h13.9"/>
	</g>
	<text transform="matrix(1 0 0 1 960 540)" style="font-family:'MyriadPro-Regular'; font-size:12px;">Am Anfang halfte er bei der Suche nach dem vermissten Mädchen. </text>
</g>
<g id="Layer_2" class="st0">
	<g transform="matrix(.8 0 0 .8 -8.0004 -8)" class="st1">
		<path class="st2" d="M59.1,62.9l-5.4-10.7h-8l13.4,26.4l13.4-26.4h-8"/>
		<path class="st3" d="M46.3,37.7l7.4,14.5h10.8L46.3,16.3L28.1,52.3H39"/>
	</g>
	<g transform="matrix(.8 0 0 .8 -8.0004 -8)">
		<g class="st1">
			<polyline class="st2" points="68.2,68.9 62.7,58.2 54.8,58.2 68.2,84.6 81.6,58.2 73.6,58.2 			"/>
			<polygon class="st4" points="68.2,87.4 52.7,56.9 63.5,56.9 69.3,68.3 67.1,69.5 62,59.4 56.8,59.4 68.2,81.9 79.5,59.4 
				73.6,59.4 73.6,56.9 83.6,56.9 			"/>
			<polyline class="st2" points="68.2,68.9 62.7,58.2 54.8,58.2 68.2,84.6 81.6,58.2 73.6,58.2 			"/>
		</g>
		<g class="st1">
			<polyline class="st3" points="55.4,43.6 62.7,58.2 73.6,58.2 55.4,22.3 37.2,58.2 48,58.2 			"/>
			<polygon class="st5" points="48,59.4 35.2,59.4 55.4,19.5 75.6,59.4 62,59.4 54.3,44.2 56.5,43.1 63.5,56.9 71.6,56.9 55.4,25 
				39.2,56.9 48,56.9 			"/>
			<polyline class="st3" points="55.4,43.6 62.7,58.2 73.6,58.2 55.4,22.3 37.2,58.2 48,58.2 			"/>
		</g>
	</g>
	<g transform="matrix(.8 0 0 .8 -8.0004 -8)" class="st1">
		<g>
			<polyline class="st2" points="67.8,64.6 63,55.1 55.9,55.1 67.8,78.5 79.7,55.1 72.6,55.1 			"/>
			<polygon class="st4" points="67.8,81.3 53.9,53.8 63.8,53.8 68.9,64 66.7,65.1 62.2,56.3 58,56.3 67.8,75.8 77.7,56.3 72.6,56.3 
				72.6,53.8 81.7,53.8 			"/>
			<polyline class="st2" points="67.8,64.6 63,55.1 55.9,55.1 67.8,78.5 79.7,55.1 72.6,55.1 			"/>
		</g>
		<g>
			<polyline class="st3" points="56.5,42.2 63,55.1 72.6,55.1 56.5,23.2 40.3,55.1 49.9,55.1 			"/>
			<polygon class="st5" points="49.9,56.3 38.3,56.3 56.5,20.4 74.6,56.3 62.2,56.3 55.3,42.7 57.6,41.6 63.8,53.8 70.6,53.8 
				56.5,26 42.3,53.8 49.9,53.8 			"/>
			<polyline class="st3" points="56.5,42.2 63,55.1 72.6,55.1 56.5,23.2 40.3,55.1 49.9,55.1 			"/>
		</g>
	</g>
</g>
<g id="Layer_3" class="st0">
	<path class="st6" d="M52.9,12.6v2.7H8.6v-2.7c0-1.4,1.2-2.6,2.6-2.6h39.1C51.7,10.1,52.9,11.2,52.9,12.6z"/>
	<path class="st7" d="M52.9,15.1v24.9c0,1.4-1.2,2.6-2.6,2.6H11.2c-1.4,0-2.6-1.2-2.6-2.6V15.1H52.9z"/>
	<g class="st1">
		<circle class="st8" cx="11.6" cy="12.7" r="0.8"/>
		<circle class="st8" cx="13.8" cy="12.7" r="0.8"/>
		<circle class="st8" cx="16.1" cy="12.7" r="0.8"/>
	</g>
	<circle class="st9" cx="42.6" cy="35.3" r="13.2"/>
	<g transform="matrix(.8 0 0 .8 -8.0004 -8)">
		<path class="st10" d="M67.2,61.2l-2.6-5.1h-3.8l6.4,12.6l6.4-12.6h-3.8"/>
		<path class="st11" d="M61.1,49.2l3.5,6.9h5.2L61.1,39l-8.7,17.2h5.2"/>
	</g>
	<g class="st1">
		<text transform="matrix(1 0 0 1 31 37.5195)" class="st12 st13">STRA  A</text>
		<g class="st0">
			<text transform="matrix(1 0 0 1 42.4375 39.4238)" class="st1 st12 st14">V</text>
		</g>
		<text transform="matrix(1 0 0 1 42.8691 39.9785)" class="st15 st16">V</text>
	</g>
</g>
<g id="Layer_4" class="st0">
	<path class="st6" d="M52.9,12.6v2.7H8.6v-2.7c0-1.4,1.2-2.6,2.6-2.6h39.1C51.7,10.1,52.9,11.2,52.9,12.6z"/>
	<path class="st7" d="M52.9,15.1v24.9c0,1.4-1.2,2.6-2.6,2.6H11.2c-1.4,0-2.6-1.2-2.6-2.6V15.1H52.9z"/>
	<g class="st1">
		<circle class="st8" cx="11.6" cy="12.7" r="0.8"/>
		<circle class="st8" cx="13.8" cy="12.7" r="0.8"/>
		<circle class="st8" cx="16.1" cy="12.7" r="0.8"/>
	</g>
	<circle class="st9" cx="42.6" cy="35.3" r="13.2"/>
	<g transform="matrix(.8 0 0 .8 -8.0004 -8)">
		<path class="st10" d="M67.2,61.2l-2.6-5.1h-3.8l6.4,12.6l6.4-12.6h-3.8"/>
		<path class="st11" d="M61.1,49.2l3.5,6.9h5.2L61.1,39l-8.7,17.2h5.2"/>
	</g>
	<g class="st1">
		<text transform="matrix(1 0 0 1 31 37.5195)" class="st12 st13">STRA  A</text>
		<g class="st0">
			<text transform="matrix(1 0 0 1 42.4375 39.4238)" class="st1 st12 st14">V</text>
		</g>
		<text transform="matrix(1 0 0 1 42.8691 39.9785)" class="st15 st16">V</text>
	</g>
	<text transform="matrix(0 -1 1 0 21.3533 27.125)" class="st1 st15 st16">V</text>
	<text transform="matrix(1 0 0 1 20.3184 26.0535)" class="st1 st15 st16">_</text>
	<text transform="matrix(1 0 0 1 10.3691 27.7285)" class="st15 st16">V_</text>
	<text transform="matrix(1 0 0 1 40.625 42.6084)" class="st1 st15 st17">CLI</text>
</g>
<g id="Layer_5" class="st0">
	<text transform="matrix(1 0 0 1 20.2441 22.9792)" class="st1 st15 st16">V</text>
	<circle class="st18" cx="17.6" cy="21.9" r="4"/>
	<circle class="st18" cx="31.3" cy="21.9" r="4"/>
	<line class="st18" x1="19" y1="13.6" x2="22.9" y2="13.6"/>
	<g class="st1">
		<line class="st19" x1="27.1" y1="13.6" x2="30.9" y2="13.6"/>
		<line class="st19" x1="30.3" y1="13" x2="30.3" y2="15.1"/>
	</g>
</g>
<g id="Layer_6" class="st0">
	<path class="st6" d="M52.9,12.6v2.7H8.6v-2.7c0-1.4,1.2-2.6,2.6-2.6h39.1C51.7,10.1,52.9,11.2,52.9,12.6z"/>
	<path class="st7" d="M52.9,15.1v24.9c0,1.4-1.2,2.6-2.6,2.6H11.2c-1.4,0-2.6-1.2-2.6-2.6V15.1H52.9z"/>
	<g class="st1">
		<circle class="st8" cx="11.6" cy="12.7" r="0.8"/>
		<circle class="st8" cx="13.8" cy="12.7" r="0.8"/>
		<circle class="st8" cx="16.1" cy="12.7" r="0.8"/>
	</g>
	<circle class="st9" cx="42.6" cy="35.3" r="13.2"/>
	<g transform="matrix(.8 0 0 .8 -8.0004 -8)">
		<path class="st10" d="M67.2,61.2l-2.6-5.1h-3.8l6.4,12.6l6.4-12.6h-3.8"/>
		<path class="st11" d="M61.1,49.2l3.5,6.9h5.2L61.1,39l-8.7,17.2h5.2"/>
	</g>
	<g>
		<text transform="matrix(1 0 0 1 31 37.5195)" class="st1 st12 st13">STRA  A</text>
		<g>
			<text transform="matrix(1 0 0 1 42.4375 39.4238)" class="st1 st12 st14">V</text>
		</g>
		<text transform="matrix(1 0 0 1 42.8691 39.9785)" class="st1 st15 st16">V</text>
	</g>
	<g class="st1">
		<g>
			<g>
				<path class="st2" d="M46.2,30.2h1.4l2.7,6.3v3.1L46.2,30.2z"/>
			</g>
		</g>
		<text transform="matrix(1 0 0 1 38.9108 38.9792)" class="st20 st15 st16">V</text>
		<text transform="matrix(1 0 0 1 37.4639 41.3148)" class="st3 st15 st21">V</text>
		<circle class="st19" cx="36.3" cy="37.9" r="4"/>
		<circle class="st19" cx="49.9" cy="37.9" r="4"/>
		<line class="st19" x1="37.7" y1="29.6" x2="41.5" y2="29.6"/>
		<g>
			<line class="st19" x1="45.7" y1="29.6" x2="49.6" y2="29.6"/>
			<line class="st19" x1="49" y1="29" x2="49" y2="31.1"/>
		</g>
	</g>
	<g>
		<path class="st11" d="M57.9,25.7h1.9l3.7,8.4l3.7-8.4H69l-5.6,12.6L57.9,25.7z"/>
	</g>
	<g>
		<path class="st11" d="M45.9,31h1.3l2.5,5.8l2.5-5.8l-2.5,8.6L45.9,31z"/>
	</g>
	<g>
		<g class="st1">
			<path class="st3" d="M45.9,31h1.3l2.5,5.8v2.8L45.9,31z"/>
		</g>
	</g>
	<g>
		<g class="st1">
			<path class="st2" d="M46.2,30.2h1.4l2.7,6.3v3.1L46.2,30.2z"/>
		</g>
	</g>
	<text transform="matrix(1 0 0 1 10.6221 24.3174)" class="st1 st15 st22">_CLI</text>
</g>
<g id="layer_x5F_6_x5F_outlines">
	<path class="st23" d="M52.9,12.6v2.7H8.6v-2.7c0-1.4,1.2-2.6,2.6-2.6h39.1C51.7,10.1,52.9,11.2,52.9,12.6z"/>
	<path class="st24" d="M52.9,15.1v24.9c0,1.4-1.2,2.6-2.6,2.6H11.2c-1.4,0-2.6-1.2-2.6-2.6V15.1H52.9z"/>
	<g>
		<circle class="st8" cx="11.6" cy="12.7" r="0.8"/>
		<circle class="st8" cx="13.8" cy="12.7" r="0.8"/>
		<circle class="st8" cx="16.1" cy="12.7" r="0.8"/>
	</g>
	<circle class="st25" cx="42.6" cy="35.3" r="13.2"/>
	<g transform="matrix(.8 0 0 .8 -8.0004 -8)" class="st0">
		<path class="st10" d="M67.2,61.2l-2.6-5.1h-3.8l6.4,12.6l6.4-12.6h-3.8"/>
		<path class="st11" d="M61.1,49.2l3.5,6.9h5.2L61.1,39l-8.7,17.2h5.2"/>
	</g>
	<g class="st0">
		<text transform="matrix(1 0 0 1 31 37.5195)" class="st1 st12 st13">STRA  A</text>
		<g>
			<text transform="matrix(1 0 0 1 42.4375 39.4238)" class="st1 st12 st14">V</text>
		</g>
		<text transform="matrix(1 0 0 1 42.8691 39.9785)" class="st1 st15 st16">V</text>
	</g>
	<g>
		<g>
			<g>
				<path class="st2" d="M46.2,30.2h1.4l2.7,6.3v3.1L46.2,30.2z"/>
			</g>
		</g>
		<text transform="matrix(1 0 0 1 38.9108 38.9792)" class="st20 st15 st16">V</text>
		<g>
			<path class="st3" d="M37.6,29h1.9l3.7,8.4l3.7-8.4h1.9l-5.6,12.6L37.6,29z"/>
		</g>
		<circle class="st19" cx="36.3" cy="37.9" r="4"/>
		<circle class="st19" cx="49.9" cy="37.9" r="4"/>
		<line class="st19" x1="37.7" y1="29.6" x2="41.5" y2="29.6"/>
		<g>
			<line class="st19" x1="45.7" y1="29.6" x2="49.6" y2="29.6"/>
			<line class="st19" x1="49" y1="29" x2="49" y2="31.1"/>
		</g>
	</g>
	<g class="st0">
		<path class="st11" d="M57.9,25.7h1.9l3.7,8.4l3.7-8.4H69l-5.6,12.6L57.9,25.7z"/>
	</g>
	<g class="st0">
		<path class="st11" d="M45.9,31h1.3l2.5,5.8l2.5-5.8l-2.5,8.6L45.9,31z"/>
	</g>
	<g class="st0">
		<g class="st1">
			<path class="st3" d="M45.9,31h1.3l2.5,5.8v2.8L45.9,31z"/>
		</g>
	</g>
	<g class="st0">
		<g class="st1">
			<path class="st2" d="M46.2,30.2h1.4l2.7,6.3v3.1L46.2,30.2z"/>
		</g>
	</g>
	<g>
		<path d="M10.9,25.2v-0.6h3.8v0.6H10.9z"/>
		<path d="M19.6,23l0.3,0.7c-0.4,0.4-1.1,0.6-1.7,0.6c-1.5,0-2.8-1.2-2.8-2.8s1.3-2.8,2.8-2.8c0.6,0,1.2,0.2,1.7,0.6l-0.3,0.7
			c-0.4-0.4-0.8-0.6-1.4-0.6c-1.1,0-2,0.9-2,2s0.9,2,2,2C18.8,23.6,19.2,23.4,19.6,23z"/>
		<path d="M23.7,23.5v0.8h-2.9v-5.4h0.8v4.6H23.7z"/>
		<path d="M24.6,24.3v-5.4h0.8v5.4H24.6z"/>
	</g>
</g>
</svg>
